<?xml version="1.0" encoding="UTF-8" standalone="no"?>
<svg
   xmlns:dc="http://purl.org/dc/elements/1.1/"
   xmlns:cc="http://creativecommons.org/ns#"
   xmlns:rdf="http://www.w3.org/1999/02/22-rdf-syntax-ns#"
   xmlns:svg="http://www.w3.org/2000/svg"
   xmlns="http://www.w3.org/2000/svg"
   xmlns:sodipodi="http://sodipodi.sourceforge.net/DTD/sodipodi-0.dtd"
   xmlns:inkscape="http://www.inkscape.org/namespaces/inkscape"
   width="512"
   height="512"
   viewBox="0 0 135.46666 135.46667"
   version="1.1"
   id="svg8"
   inkscape:version="1.0.1 (0767f8302a, 2020-10-17)"
   sodipodi:docname="HRLogo.svg">
  <title
     id="title833">HartReit Logo</title>
  <defs
     id="defs2" />
  <sodipodi:namedview
     id="base"
     pagecolor="#ffffff"
     bordercolor="#666666"
     borderopacity="1.0"
     inkscape:pageopacity="0.0"
     inkscape:pageshadow="2"
     inkscape:zoom="1.1039267"
     inkscape:cx="188.48964"
     inkscape:cy="218.3434"
     inkscape:document-units="px"
     inkscape:current-layer="layer4"
     inkscape:document-rotation="0"
     showgrid="false"
     units="px"
     showguides="false"
     inkscape:guide-bbox="true"
     inkscape:window-width="1440"
     inkscape:window-height="863"
     inkscape:window-x="1366"
     inkscape:window-y="0"
     inkscape:window-maximized="1"
     inkscape:snap-global="false">
    <sodipodi:guide
       position="129.29394,18.486437"
       orientation="0,1"
       id="guide854"
       inkscape:label=""
       inkscape:locked="false"
       inkscape:color="rgb(0,0,255)" />
    <sodipodi:guide
       position="129.29394,18.486438"
       orientation="1,0"
       id="guide856" />
    <sodipodi:guide
       position="98.509665,43.113854"
       orientation="-1,0"
       id="guide858"
       inkscape:label=""
       inkscape:locked="false"
       inkscape:color="rgb(0,0,255)" />
    <sodipodi:guide
       position="98.509661,43.113856"
       orientation="0,-1"
       id="guide860" />
    <sodipodi:guide
       position="123.13708,18.486437"
       orientation="-1,0"
       id="guide862"
       inkscape:label=""
       inkscape:locked="false"
       inkscape:color="rgb(0,0,255)" />
    <sodipodi:guide
       position="90.619787,61.118751"
       orientation="1,0"
       id="guide864" />
  </sodipodi:namedview>
  <metadata
     id="metadata5">
    <rdf:RDF>
      <cc:Work
         rdf:about="">
        <dc:format>image/svg+xml</dc:format>
        <dc:type
           rdf:resource="http://purl.org/dc/dcmitype/StillImage" />
        <dc:title>HartReit Logo</dc:title>
        <cc:license
           rdf:resource="http://creativecommons.org/licenses/by/4.0/" />
        <dc:creator>
          <cc:Agent>
            <dc:title>J4ckDev</dc:title>
          </cc:Agent>
        </dc:creator>
        <dc:publisher>
          <cc:Agent>
            <dc:title>J4ckDev</dc:title>
          </cc:Agent>
        </dc:publisher>
      </cc:Work>
      <cc:License
         rdf:about="http://creativecommons.org/licenses/by/4.0/">
        <cc:permits
           rdf:resource="http://creativecommons.org/ns#Reproduction" />
        <cc:permits
           rdf:resource="http://creativecommons.org/ns#Distribution" />
        <cc:requires
           rdf:resource="http://creativecommons.org/ns#Notice" />
        <cc:requires
           rdf:resource="http://creativecommons.org/ns#Attribution" />
        <cc:permits
           rdf:resource="http://creativecommons.org/ns#DerivativeWorks" />
      </cc:License>
    </rdf:RDF>
  </metadata>
  <g
     inkscape:groupmode="layer"
     id="layer4"
     inkscape:label="R"
     sodipodi:insensitive="true">
    <path
       style="color:#000000;font-style:normal;font-variant:normal;font-weight:normal;font-stretch:normal;font-size:medium;line-height:normal;font-family:sans-serif;font-variant-ligatures:normal;font-variant-position:normal;font-variant-caps:normal;font-variant-numeric:normal;font-variant-alternates:normal;font-variant-east-asian:normal;font-feature-settings:normal;font-variation-settings:normal;text-indent:0;text-align:start;text-decoration:none;text-decoration-line:none;text-decoration-style:solid;text-decoration-color:#000000;letter-spacing:normal;word-spacing:normal;text-transform:none;writing-mode:lr-tb;direction:ltr;text-orientation:mixed;dominant-baseline:auto;baseline-shift:baseline;text-anchor:start;white-space:normal;shape-padding:0;shape-margin:0;inline-size:0;clip-rule:nonzero;display:inline;overflow:visible;visibility:visible;opacity:1;isolation:auto;mix-blend-mode:normal;color-interpolation:sRGB;color-interpolation-filters:linearRGB;solid-color:#000000;solid-opacity:1;vector-effect:none;fill:#333333;fill-opacity:1;fill-rule:nonzero;stroke:none;stroke-width:3.70417;stroke-linecap:round;stroke-linejoin:round;stroke-miterlimit:4;stroke-dasharray:none;stroke-dashoffset:0;stroke-opacity:1;color-rendering:auto;image-rendering:auto;shape-rendering:auto;text-rendering:auto;enable-background:accumulate;stop-color:#000000;stop-opacity:1"
       d="m 90.556641,72.496094 a 1.852085,1.852085 0 0 0 -1.267579,0.5625 1.852085,1.852085 0 0 0 0.04102,2.61914 c 4.74594,4.598905 7.230924,10.047987 7.328125,16.701172 a 1.8522702,1.8522702 0 0 0 0.0039,0.115235 c 0.784051,10.214439 5.352643,16.931769 10.748053,20.921879 5.3954,3.9901 11.48377,5.35114 15.69922,5.41601 a 1.8522702,1.8522702 0 0 0 0.0273,0 h 6.15625 a 1.852085,1.852085 0 0 0 1.85351,-1.85156 1.852085,1.852085 0 0 0 -1.85351,-1.85156 h -6.12695 c -3.44345,-0.053 -8.92299,-1.26558 -13.55274,-4.68946 -4.62975,-3.42387 -8.54652,-8.96192 -9.25781,-18.228512 l 0.006,0.115234 C 100.25069,84.753535 97.26047,78.204025 91.908203,73.017578 a 1.852085,1.852085 0 0 0 -1.351562,-0.521484 z"
       id="path908" />
  </g>
  <g
     inkscape:groupmode="layer"
     id="layer3"
     inkscape:label="Corazon"
     style="opacity:1">
    <path
       id="path912"
       style="color:#000000;font-style:normal;font-variant:normal;font-weight:normal;font-stretch:normal;font-size:medium;line-height:normal;font-family:sans-serif;font-variant-ligatures:normal;font-variant-position:normal;font-variant-caps:normal;font-variant-numeric:normal;font-variant-alternates:normal;font-variant-east-asian:normal;font-feature-settings:normal;font-variation-settings:normal;text-indent:0;text-align:start;text-decoration:none;text-decoration-line:none;text-decoration-style:solid;text-decoration-color:#000000;letter-spacing:normal;word-spacing:normal;text-transform:none;writing-mode:lr-tb;direction:ltr;text-orientation:mixed;dominant-baseline:auto;baseline-shift:baseline;text-anchor:start;white-space:normal;shape-padding:0;shape-margin:0;inline-size:0;clip-rule:nonzero;display:inline;overflow:visible;visibility:visible;opacity:1;isolation:auto;mix-blend-mode:normal;color-interpolation:sRGB;color-interpolation-filters:linearRGB;solid-color:#000000;solid-opacity:1;vector-effect:none;fill:#ff5555;fill-opacity:1;fill-rule:nonzero;stroke:none;stroke-width:3.70416;stroke-linecap:round;stroke-linejoin:round;stroke-miterlimit:4;stroke-dasharray:none;stroke-dashoffset:0;stroke-opacity:1;color-rendering:auto;image-rendering:auto;shape-rendering:auto;text-rendering:auto;enable-background:accumulate;stop-color:#000000"
       d="m 36.61896,16.788122 c -13.423622,0.0052 -25.643694,11.122386 -26.143196,26.249045 -0.0018,0.05443 -0.0014,0.108917 0.0016,0.163295 0.549972,9.941995 4.150289,19.745651 14.449328,26.837123 0.0079,0.0054 0.01581,0.01073 0.02377,0.01601 17.716369,11.804174 32.326768,23.008412 34.775169,47.113915 0.225567,2.22004 3.459998,2.22004 3.685565,0 2.448316,-24.105483 17.059252,-35.309745 34.775645,-47.11392 0.008,-0.0053 0.01588,-0.01061 0.02376,-0.01601 10.299069,-7.09149 13.912129,-16.895195 14.462179,-26.837118 0.003,-0.05438 0.004,-0.10886 0.002,-0.163295 C 112.1671,27.670432 99.548394,16.440663 85.878579,16.796391 80.097825,16.946822 73.854476,18.973323 68.865649,23.258529 65.775668,25.9127 63.20269,29.453406 61.568414,33.867182 59.93419,29.453411 57.361596,25.912706 54.271694,23.258529 49.282998,18.973314 43.039519,16.946822 37.258765,16.796391 c -0.212469,-0.0055 -0.425545,-0.0084 -0.639755,-0.0083 z"
       sodipodi:insensitive="true"
       sodipodi:nodetypes="cssccccccccsscsccc" />
    <path
       style="color:#000000;font-style:normal;font-variant:normal;font-weight:normal;font-stretch:normal;font-size:medium;line-height:normal;font-family:sans-serif;font-variant-ligatures:normal;font-variant-position:normal;font-variant-caps:normal;font-variant-numeric:normal;font-variant-alternates:normal;font-variant-east-asian:normal;font-feature-settings:normal;font-variation-settings:normal;text-indent:0;text-align:start;text-decoration:none;text-decoration-line:none;text-decoration-style:solid;text-decoration-color:#000000;letter-spacing:normal;word-spacing:normal;text-transform:none;writing-mode:lr-tb;direction:ltr;text-orientation:mixed;dominant-baseline:auto;baseline-shift:baseline;text-anchor:start;white-space:normal;shape-padding:0;shape-margin:0;inline-size:0;clip-rule:nonzero;display:inline;overflow:visible;visibility:visible;opacity:1;isolation:auto;mix-blend-mode:normal;color-interpolation:sRGB;color-interpolation-filters:linearRGB;solid-color:#000000;solid-opacity:1;vector-effect:none;fill:#333333;fill-opacity:1;fill-rule:nonzero;stroke:none;stroke-width:3.70417;stroke-linecap:round;stroke-linejoin:round;stroke-miterlimit:4;stroke-dasharray:none;stroke-dashoffset:0;stroke-opacity:1;color-rendering:auto;image-rendering:auto;shape-rendering:auto;text-rendering:auto;enable-background:accumulate;stop-color:#000000;stop-opacity:1"
       d="m 86.426163,16.752492 c -13.606378,-0.09941 -26.159032,9.970442 -26.707413,26.26118 -0.04608,1.020667 0.743081,1.88586 1.763672,1.933594 1.021414,0.04719 1.887825,-0.742283 1.935547,-1.763672 0.666944,-14.480467 10.834817,-22.465015 23.117187,-22.660156 11.262825,-0.178944 22.334184,9.607024 22.427734,22.5625 0.071,9.839408 -3.70882,17.867943 -12.847656,23.896484 -15.535229,10.248002 -24.035432,18.603242 -28.882812,26.615234 -4.851402,8.018644 -6.045918,15.445324 -7.484375,23.037114 -0.191287,1.00606 0.432221,2.00981 1.438594,2.19943 1.005379,0.19008 2.012382,-0.50452 2.202031,-1.50998 1.450108,-7.65328 2.544989,-14.42253 7.013672,-21.808595 4.468668,-7.386042 11.855591,-14.688634 27.761718,-25.447266 0.01168,-0.0079 0.02339,-0.01572 0.03516,-0.02344 C 106.57585,64.551671 113.11428,54.599059 112.80686,43.22694 112.33832,25.894481 98.257906,16.411984 86.426163,16.752492 Z"
       id="path921"
       sodipodi:nodetypes="ccccsssscccssssc" />
  </g>
  <g
     inkscape:label="H"
     inkscape:groupmode="layer"
     id="layer1"
     style="display:inline"
     sodipodi:insensitive="true">
    <path
       id="path889"
       style="color:#000000;font-style:normal;font-variant:normal;font-weight:normal;font-stretch:normal;font-size:medium;line-height:normal;font-family:sans-serif;font-variant-ligatures:normal;font-variant-position:normal;font-variant-caps:normal;font-variant-numeric:normal;font-variant-alternates:normal;font-variant-east-asian:normal;font-feature-settings:normal;font-variation-settings:normal;text-indent:0;text-align:start;text-decoration:none;text-decoration-line:none;text-decoration-style:solid;text-decoration-color:#000000;letter-spacing:normal;word-spacing:normal;text-transform:none;writing-mode:lr-tb;direction:ltr;text-orientation:mixed;dominant-baseline:auto;baseline-shift:baseline;text-anchor:start;white-space:normal;shape-padding:0;shape-margin:0;inline-size:0;clip-rule:nonzero;display:inline;overflow:visible;visibility:visible;opacity:1;isolation:auto;mix-blend-mode:normal;color-interpolation:sRGB;color-interpolation-filters:linearRGB;solid-color:#000000;solid-opacity:1;vector-effect:none;fill:#333333;fill-opacity:1;fill-rule:nonzero;stroke:none;stroke-width:3.70417;stroke-linecap:round;stroke-linejoin:round;stroke-miterlimit:4;stroke-dasharray:none;stroke-dashoffset:0;stroke-opacity:1;color-rendering:auto;image-rendering:auto;shape-rendering:auto;text-rendering:auto;enable-background:accumulate;stop-color:#000000;stop-opacity:1"
       d="m 61.568359,81.265625 a 1.852085,1.852085 0 0 0 -1.851562,1.851563 v 33.863282 a 1.852085,1.852085 0 0 0 1.851562,1.85156 1.852085,1.852085 0 0 0 1.851563,-1.85156 V 83.117188 a 1.852085,1.852085 0 0 0 -1.851563,-1.851563 z m 0,-64.646484 a 1.852085,1.852085 0 0 0 -1.851562,1.851562 v 36.941406 a 1.852085,1.852085 0 0 0 1.851562,1.851563 1.852085,1.852085 0 0 0 1.851563,-1.851563 V 18.470703 a 1.852085,1.852085 0 0 0 -1.851563,-1.851562 z m -49.253906,0 a 1.852085,1.852085 0 0 0 -1.853515,1.851562 v 98.509767 a 1.852085,1.852085 0 0 0 1.853515,1.85156 1.852085,1.852085 0 0 0 1.851563,-1.85156 V 18.470703 a 1.852085,1.852085 0 0 0 -1.851563,-1.851562 z" />
  </g>
  <g
     inkscape:groupmode="layer"
     id="layer2"
     inkscape:label="Pulso"
     style="display:inline"
     sodipodi:insensitive="true">
    <path
       id="path903"
       style="color:#000000;font-style:normal;font-variant:normal;font-weight:normal;font-stretch:normal;font-size:medium;line-height:normal;font-family:sans-serif;font-variant-ligatures:normal;font-variant-position:normal;font-variant-caps:normal;font-variant-numeric:normal;font-variant-alternates:normal;font-variant-east-asian:normal;font-feature-settings:normal;font-variation-settings:normal;text-indent:0;text-align:start;text-decoration:none;text-decoration-line:none;text-decoration-style:solid;text-decoration-color:#000000;letter-spacing:normal;word-spacing:normal;text-transform:none;writing-mode:lr-tb;direction:ltr;text-orientation:mixed;dominant-baseline:auto;baseline-shift:baseline;text-anchor:start;white-space:normal;shape-padding:0;shape-margin:0;inline-size:0;clip-rule:nonzero;display:inline;overflow:visible;visibility:visible;opacity:1;isolation:auto;mix-blend-mode:normal;color-interpolation:sRGB;color-interpolation-filters:linearRGB;solid-color:#000000;solid-opacity:1;vector-effect:none;fill:#333333;fill-opacity:1;fill-rule:nonzero;stroke:none;stroke-width:14;stroke-linecap:round;stroke-linejoin:round;stroke-miterlimit:4;stroke-dasharray:none;stroke-dashoffset:0;stroke-opacity:1;color-rendering:auto;image-rendering:auto;shape-rendering:auto;text-rendering:auto;enable-background:accumulate;stop-color:#000000;stop-opacity:1"
       d="m 162.88867,155.88867 a 7.0007064,7.0007064 0 0 0 -0.20703,0.002 7.0007064,7.0007064 0 0 0 -6.05273,3.86915 l -32.9668,65.9414 H 32.369141 c -2.106498,-2.73058 -5.400364,-4.50195 -9.101563,-4.50195 -6.333507,0 -11.499999,5.16649 -11.5,11.5 -1e-6,6.33351 5.166491,11.50195 11.5,11.50195 3.7012,0 6.995065,-1.77277 9.101563,-4.5039 h 95.617189 a 7.0007064,7.0007064 0 0 0 6.25976,-3.86719 l 28.33985,-56.68555 52.10937,114.625 a 7.0007064,7.0007064 0 0 0 12.3711,0.70899 l 32.86523,-54.78125 h 33.47656 c 2.10594,2.73132 5.40022,4.50391 9.10157,4.5039 6.3335,0 11.50195,-5.16844 11.50195,-11.50195 0,-6.33351 -5.16845,-11.5 -11.50195,-11.5 -3.70135,-1e-5 -6.99564,1.77118 -9.10157,4.50195 h -37.4414 a 7.0007064,7.0007064 0 0 0 -6.00196,3.39649 L 221.92188,275.8457 169.25977,159.99414 a 7.0007064,7.0007064 0 0 0 -6.3711,-4.10547 z"
       transform="scale(0.26458333)" />
  </g>
</svg>
